<mxfile host="app.diagrams.net" agent="Mozilla/5.0 (Windows NT 10.0; Win64; x64) AppleWebKit/537.36 (KHTML, like Gecko) Chrome/140.0.0.0 Safari/537.36" version="28.2.1">
  <diagram name="Page-1" id="3UM7lA67JvSouDeTN-OW">
    <mxGraphModel dx="872" dy="445" grid="1" gridSize="10" guides="1" tooltips="1" connect="1" arrows="1" fold="1" page="1" pageScale="1" pageWidth="850" pageHeight="1100" background="none" math="0" shadow="0" adaptiveColors="auto">
      <root>
        <mxCell id="0" />
        <mxCell id="1" parent="0" />
        <mxCell id="-WxLO-t34cw7uGck5NfS-1" value="STACK" style="text;html=1;align=center;verticalAlign=middle;whiteSpace=wrap;rounded=0;fontStyle=1" vertex="1" parent="1">
          <mxGeometry x="70" y="40" width="150" height="50" as="geometry" />
        </mxCell>
        <mxCell id="-WxLO-t34cw7uGck5NfS-3" value="HEAP" style="text;html=1;align=center;verticalAlign=middle;whiteSpace=wrap;rounded=0;fontStyle=1" vertex="1" parent="1">
          <mxGeometry x="340" y="40" width="150" height="50" as="geometry" />
        </mxCell>
        <mxCell id="-WxLO-t34cw7uGck5NfS-4" value="METHOD_AREA" style="text;html=1;align=center;verticalAlign=middle;whiteSpace=wrap;rounded=0;fontStyle=1" vertex="1" parent="1">
          <mxGeometry x="620" y="40" width="150" height="50" as="geometry" />
        </mxCell>
        <mxCell id="-WxLO-t34cw7uGck5NfS-5" value="load StringPool&lt;div&gt;class&lt;/div&gt;&lt;div&gt;metadata&lt;/div&gt;" style="ellipse;whiteSpace=wrap;html=1;fillColor=#e1d5e7;strokeColor=#9673a6;" vertex="1" parent="1">
          <mxGeometry x="630" y="130" width="115" height="60" as="geometry" />
        </mxCell>
        <mxCell id="-WxLO-t34cw7uGck5NfS-6" value="load String class&lt;div&gt;metadate&lt;/div&gt;" style="ellipse;whiteSpace=wrap;html=1;fillColor=#fff2cc;strokeColor=#d6b656;" vertex="1" parent="1">
          <mxGeometry x="630" y="260" width="115" height="70" as="geometry" />
        </mxCell>
        <mxCell id="-WxLO-t34cw7uGck5NfS-8" value="STRING CONSTANT POOL (SCP)" style="swimlane;whiteSpace=wrap;html=1;" vertex="1" parent="1">
          <mxGeometry x="290" y="100" width="300" height="230" as="geometry" />
        </mxCell>
        <mxCell id="-WxLO-t34cw7uGck5NfS-24" value="Klass Ptr 1" style="swimlane;whiteSpace=wrap;html=1;fillColor=#f8cecc;strokeColor=#b85450;" vertex="1" parent="-WxLO-t34cw7uGck5NfS-8">
          <mxGeometry x="40" y="40" width="100" height="50" as="geometry" />
        </mxCell>
        <mxCell id="-WxLO-t34cw7uGck5NfS-25" value="&quot;I am in pool&quot;" style="text;html=1;align=center;verticalAlign=middle;resizable=0;points=[];autosize=1;strokeColor=none;fillColor=none;" vertex="1" parent="-WxLO-t34cw7uGck5NfS-24">
          <mxGeometry x="5" y="20" width="90" height="30" as="geometry" />
        </mxCell>
        <mxCell id="-WxLO-t34cw7uGck5NfS-40" style="edgeStyle=orthogonalEdgeStyle;rounded=0;orthogonalLoop=1;jettySize=auto;html=1;exitX=0.5;exitY=0;exitDx=0;exitDy=0;entryX=0.75;entryY=0;entryDx=0;entryDy=0;" edge="1" parent="-WxLO-t34cw7uGck5NfS-8" source="-WxLO-t34cw7uGck5NfS-24" target="-WxLO-t34cw7uGck5NfS-24">
          <mxGeometry relative="1" as="geometry" />
        </mxCell>
        <mxCell id="-WxLO-t34cw7uGck5NfS-48" value="Klass Ptr 1" style="swimlane;whiteSpace=wrap;html=1;fillColor=#f8cecc;strokeColor=#b85450;" vertex="1" parent="-WxLO-t34cw7uGck5NfS-8">
          <mxGeometry x="135" y="130" width="100" height="50" as="geometry" />
        </mxCell>
        <mxCell id="-WxLO-t34cw7uGck5NfS-49" value="&quot;Hello&quot;" style="text;html=1;align=center;verticalAlign=middle;resizable=0;points=[];autosize=1;strokeColor=none;fillColor=none;" vertex="1" parent="-WxLO-t34cw7uGck5NfS-48">
          <mxGeometry x="20" y="20" width="60" height="30" as="geometry" />
        </mxCell>
        <mxCell id="-WxLO-t34cw7uGck5NfS-59" value="&lt;font style=&quot;font-size: 10px;&quot;&gt;Create a literal in SCP as it does&#39;nt exist&lt;/font&gt;" style="text;html=1;align=center;verticalAlign=middle;whiteSpace=wrap;rounded=0;" vertex="1" parent="-WxLO-t34cw7uGck5NfS-8">
          <mxGeometry x="160" y="100" width="110" height="30" as="geometry" />
        </mxCell>
        <mxCell id="-WxLO-t34cw7uGck5NfS-16" value="Object References" style="swimlane;whiteSpace=wrap;html=1;" vertex="1" parent="1">
          <mxGeometry x="40" y="100" width="220" height="230" as="geometry" />
        </mxCell>
        <mxCell id="-WxLO-t34cw7uGck5NfS-21" value="" style="swimlane;startSize=0;fillColor=#fff2cc;strokeColor=#d6b656;" vertex="1" parent="-WxLO-t34cw7uGck5NfS-16">
          <mxGeometry x="62.5" y="50" width="85" height="40" as="geometry" />
        </mxCell>
        <mxCell id="-WxLO-t34cw7uGck5NfS-22" value="poolStr" style="text;html=1;align=center;verticalAlign=middle;resizable=0;points=[];autosize=1;strokeColor=none;fillColor=none;" vertex="1" parent="-WxLO-t34cw7uGck5NfS-21">
          <mxGeometry x="15" y="5" width="60" height="30" as="geometry" />
        </mxCell>
        <mxCell id="-WxLO-t34cw7uGck5NfS-46" value="" style="swimlane;startSize=0;fillColor=#fff2cc;strokeColor=#d6b656;" vertex="1" parent="-WxLO-t34cw7uGck5NfS-16">
          <mxGeometry x="62.5" y="170" width="85" height="40" as="geometry" />
        </mxCell>
        <mxCell id="-WxLO-t34cw7uGck5NfS-47" value="heapStr2" style="text;html=1;align=center;verticalAlign=middle;resizable=0;points=[];autosize=1;strokeColor=none;fillColor=none;" vertex="1" parent="-WxLO-t34cw7uGck5NfS-46">
          <mxGeometry x="10" y="5" width="70" height="30" as="geometry" />
        </mxCell>
        <mxCell id="-WxLO-t34cw7uGck5NfS-26" value="Klass Ptr 2" style="swimlane;whiteSpace=wrap;html=1;fillColor=#dae8fc;strokeColor=#6c8ebf;" vertex="1" parent="1">
          <mxGeometry x="360" y="460.17" width="105" height="50" as="geometry" />
        </mxCell>
        <mxCell id="-WxLO-t34cw7uGck5NfS-27" value="&quot;I am not in pool&quot;" style="text;html=1;align=center;verticalAlign=middle;resizable=0;points=[];autosize=1;strokeColor=none;fillColor=none;" vertex="1" parent="-WxLO-t34cw7uGck5NfS-26">
          <mxGeometry x="-5" y="20" width="110" height="30" as="geometry" />
        </mxCell>
        <mxCell id="-WxLO-t34cw7uGck5NfS-30" style="edgeStyle=orthogonalEdgeStyle;rounded=1;orthogonalLoop=1;jettySize=auto;html=1;entryX=0;entryY=0.25;entryDx=0;entryDy=0;curved=0;" edge="1" parent="1" target="-WxLO-t34cw7uGck5NfS-24">
          <mxGeometry relative="1" as="geometry">
            <mxPoint x="190" y="170" as="sourcePoint" />
            <Array as="points">
              <mxPoint x="230" y="170" />
              <mxPoint x="230" y="153" />
            </Array>
          </mxGeometry>
        </mxCell>
        <mxCell id="-WxLO-t34cw7uGck5NfS-51" style="edgeStyle=orthogonalEdgeStyle;rounded=1;orthogonalLoop=1;jettySize=auto;html=1;curved=0;" edge="1" parent="1" source="-WxLO-t34cw7uGck5NfS-31">
          <mxGeometry relative="1" as="geometry">
            <mxPoint x="240" y="290" as="targetPoint" />
          </mxGeometry>
        </mxCell>
        <mxCell id="-WxLO-t34cw7uGck5NfS-31" value="" style="swimlane;startSize=0;fillColor=#fff2cc;strokeColor=#d6b656;" vertex="1" parent="1">
          <mxGeometry x="102.5" y="210" width="85" height="40" as="geometry" />
        </mxCell>
        <mxCell id="-WxLO-t34cw7uGck5NfS-32" value="heapStr" style="text;html=1;align=center;verticalAlign=middle;resizable=0;points=[];autosize=1;strokeColor=none;fillColor=none;" vertex="1" parent="-WxLO-t34cw7uGck5NfS-31">
          <mxGeometry x="10" y="5" width="70" height="30" as="geometry" />
        </mxCell>
        <mxCell id="-WxLO-t34cw7uGck5NfS-33" style="edgeStyle=orthogonalEdgeStyle;rounded=1;orthogonalLoop=1;jettySize=auto;html=1;entryX=-0.009;entryY=0.6;entryDx=0;entryDy=0;entryPerimeter=0;curved=0;" edge="1" parent="1" target="-WxLO-t34cw7uGck5NfS-27">
          <mxGeometry relative="1" as="geometry">
            <mxPoint x="240" y="290" as="sourcePoint" />
            <Array as="points">
              <mxPoint x="240" y="498" />
            </Array>
          </mxGeometry>
        </mxCell>
        <mxCell id="-WxLO-t34cw7uGck5NfS-36" value="" style="rounded=0;whiteSpace=wrap;html=1;fillColor=none;" vertex="1" parent="1">
          <mxGeometry x="40" y="40" width="760" height="40" as="geometry" />
        </mxCell>
        <mxCell id="-WxLO-t34cw7uGck5NfS-37" style="edgeStyle=orthogonalEdgeStyle;rounded=1;orthogonalLoop=1;jettySize=auto;html=1;entryX=0;entryY=0.5;entryDx=0;entryDy=0;shape=wire;dashed=1;curved=0;" edge="1" parent="1" source="-WxLO-t34cw7uGck5NfS-24" target="-WxLO-t34cw7uGck5NfS-6">
          <mxGeometry relative="1" as="geometry">
            <Array as="points">
              <mxPoint x="570" y="165" />
              <mxPoint x="570" y="295" />
            </Array>
          </mxGeometry>
        </mxCell>
        <mxCell id="-WxLO-t34cw7uGck5NfS-38" style="edgeStyle=orthogonalEdgeStyle;rounded=1;orthogonalLoop=1;jettySize=auto;html=1;entryX=0;entryY=0.5;entryDx=0;entryDy=0;shape=wire;dashed=1;curved=0;exitX=1.036;exitY=0.5;exitDx=0;exitDy=0;exitPerimeter=0;" edge="1" parent="1" source="-WxLO-t34cw7uGck5NfS-27" target="-WxLO-t34cw7uGck5NfS-6">
          <mxGeometry relative="1" as="geometry">
            <mxPoint x="550" y="380" as="sourcePoint" />
            <mxPoint x="750" y="510" as="targetPoint" />
            <Array as="points">
              <mxPoint x="570" y="495" />
              <mxPoint x="570" y="295" />
            </Array>
          </mxGeometry>
        </mxCell>
        <mxCell id="-WxLO-t34cw7uGck5NfS-41" value="" style="endArrow=classic;html=1;rounded=0;exitX=0.556;exitY=1.167;exitDx=0;exitDy=0;exitPerimeter=0;entryX=0.25;entryY=0;entryDx=0;entryDy=0;curved=1;" edge="1" parent="1" source="-WxLO-t34cw7uGck5NfS-25" target="-WxLO-t34cw7uGck5NfS-26">
          <mxGeometry relative="1" as="geometry">
            <mxPoint x="360" y="200" as="sourcePoint" />
            <mxPoint x="520" y="200" as="targetPoint" />
            <Array as="points">
              <mxPoint x="310" y="260" />
            </Array>
          </mxGeometry>
        </mxCell>
        <mxCell id="-WxLO-t34cw7uGck5NfS-42" value="Copies contents from&lt;div&gt;existing SCP literal&amp;nbsp;&lt;/div&gt;" style="edgeLabel;resizable=0;html=1;;align=center;verticalAlign=middle;" connectable="0" vertex="1" parent="-WxLO-t34cw7uGck5NfS-41">
          <mxGeometry relative="1" as="geometry">
            <mxPoint x="19" y="-14" as="offset" />
          </mxGeometry>
        </mxCell>
        <mxCell id="-WxLO-t34cw7uGck5NfS-43" value="SCP" style="edgeLabel;resizable=0;html=1;;align=left;verticalAlign=bottom;" connectable="0" vertex="1" parent="-WxLO-t34cw7uGck5NfS-41">
          <mxGeometry x="-1" relative="1" as="geometry">
            <mxPoint y="15" as="offset" />
          </mxGeometry>
        </mxCell>
        <mxCell id="-WxLO-t34cw7uGck5NfS-44" value="HEAP" style="edgeLabel;resizable=0;html=1;;align=right;verticalAlign=bottom;" connectable="0" vertex="1" parent="-WxLO-t34cw7uGck5NfS-41">
          <mxGeometry x="1" relative="1" as="geometry" />
        </mxCell>
        <mxCell id="-WxLO-t34cw7uGck5NfS-52" value="Klass Ptr 2" style="swimlane;whiteSpace=wrap;html=1;fillColor=#dae8fc;strokeColor=#6c8ebf;" vertex="1" parent="1">
          <mxGeometry x="450" y="390" width="105" height="50" as="geometry" />
        </mxCell>
        <mxCell id="-WxLO-t34cw7uGck5NfS-53" value="&quot;Hello&quot;" style="text;html=1;align=center;verticalAlign=middle;resizable=0;points=[];autosize=1;strokeColor=none;fillColor=none;" vertex="1" parent="-WxLO-t34cw7uGck5NfS-52">
          <mxGeometry x="20" y="20" width="60" height="30" as="geometry" />
        </mxCell>
        <mxCell id="-WxLO-t34cw7uGck5NfS-50" style="edgeStyle=orthogonalEdgeStyle;rounded=1;orthogonalLoop=1;jettySize=auto;html=1;entryX=0;entryY=0.5;entryDx=0;entryDy=0;curved=0;" edge="1" parent="1" source="-WxLO-t34cw7uGck5NfS-46" target="-WxLO-t34cw7uGck5NfS-52">
          <mxGeometry relative="1" as="geometry">
            <mxPoint x="430" y="430" as="targetPoint" />
            <Array as="points">
              <mxPoint x="145" y="415" />
            </Array>
          </mxGeometry>
        </mxCell>
        <mxCell id="-WxLO-t34cw7uGck5NfS-54" value="" style="endArrow=classic;html=1;rounded=0;exitX=0.333;exitY=1;exitDx=0;exitDy=0;exitPerimeter=0;entryX=0.333;entryY=0.02;entryDx=0;entryDy=0;curved=1;entryPerimeter=0;" edge="1" parent="1" source="-WxLO-t34cw7uGck5NfS-49" target="-WxLO-t34cw7uGck5NfS-52">
          <mxGeometry relative="1" as="geometry">
            <mxPoint x="745" y="390" as="sourcePoint" />
            <mxPoint x="746" y="655" as="targetPoint" />
            <Array as="points">
              <mxPoint x="440" y="310" />
            </Array>
          </mxGeometry>
        </mxCell>
        <mxCell id="-WxLO-t34cw7uGck5NfS-55" value="Copies contents from&lt;div&gt;existing SCP literal&amp;nbsp;&lt;/div&gt;" style="edgeLabel;resizable=0;html=1;;align=center;verticalAlign=middle;" connectable="0" vertex="1" parent="-WxLO-t34cw7uGck5NfS-54">
          <mxGeometry relative="1" as="geometry">
            <mxPoint x="19" y="-3" as="offset" />
          </mxGeometry>
        </mxCell>
        <mxCell id="-WxLO-t34cw7uGck5NfS-56" value="SCP" style="edgeLabel;resizable=0;html=1;;align=left;verticalAlign=bottom;" connectable="0" vertex="1" parent="-WxLO-t34cw7uGck5NfS-54">
          <mxGeometry x="-1" relative="1" as="geometry">
            <mxPoint y="15" as="offset" />
          </mxGeometry>
        </mxCell>
        <mxCell id="-WxLO-t34cw7uGck5NfS-57" value="HEAP" style="edgeLabel;resizable=0;html=1;;align=right;verticalAlign=bottom;" connectable="0" vertex="1" parent="-WxLO-t34cw7uGck5NfS-54">
          <mxGeometry x="1" relative="1" as="geometry" />
        </mxCell>
        <mxCell id="-WxLO-t34cw7uGck5NfS-58" value="Text" style="text;html=1;align=center;verticalAlign=middle;whiteSpace=wrap;rounded=0;" vertex="1" parent="1">
          <mxGeometry x="300" y="290" width="60" height="30" as="geometry" />
        </mxCell>
      </root>
    </mxGraphModel>
  </diagram>
</mxfile>
